Mertz-Light.ufo
<glyph name="two" format="1">
  <advance width="940"/>
  <unicode hex="0032"/>
  <outline>
    <contour>
      <point x="94" y="0" type="curve"/>
      <point x="835" y="0" type="line"/>
      <point x="835" y="106" type="line"/>
      <point x="319" y="106" type="line"/>
      <point x="626" y="503" type="line" smooth="yes"/>
      <point x="741" y="652"/>
      <point x="823" y="763"/>
      <point x="823" y="920" type="curve" smooth="yes"/>
      <point x="823" y="1136"/>
      <point x="674" y="1274"/>
      <point x="473" y="1274" type="curve" smooth="yes"/>
      <point x="335" y="1274"/>
      <point x="197" y="1214"/>
      <point x="135" y="1160" type="curve"/>
      <point x="185" y="1058" type="line"/>
      <point x="234" y="1101"/>
      <point x="353" y="1167"/>
      <point x="469" y="1167" type="curve" smooth="yes"/>
      <point x="592" y="1167"/>
      <point x="698" y="1090"/>
      <point x="698" y="935" type="curve" smooth="yes"/>
      <point x="698.0" y="795.870563862"/>
      <point x="624.094026278" y="701.100516753"/>
      <point x="538" y="587" type="curve" smooth="yes"/>
      <point x="538" y="587"/>
      <point x="94.0" y="0.0"/>
    </contour>
  </outline>
</glyph>
<glyph name="less" format="1">
  <advance width="912"/>
  <unicode hex="003C"/>
  <outline>
    <contour>
      <point x="28" y="390" type="line"/>
      <point x="884" y="-12" type="line"/>
      <point x="884" y="115" type="line"/>
      <point x="267" y="389" type="line"/>
      <point x="884" y="674" type="line"/>
      <point x="884" y="804" type="line"/>
    </contour>
  </outline>
</glyph>
<glyph name="equal" format="1">
  <advance width="1259"/>
  <unicode hex="003D"/>
  <outline>
    <contour>
      <point x="880" y="410" type="line"/>
      <point x="880" y="503" type="line"/>
      <point x="270" y="503" type="line"/>
      <point x="270" y="410" type="line"/>
    </contour>
    <contour>
      <point x="880" y="647" type="line"/>
      <point x="880" y="740" type="line"/>
      <point x="270.0" y="740.0" type="line"/>
      <point x="270.0" y="647.0" type="line"/>
    </contour>
  </outline>
</glyph>
<glyph name="question" format="1">
  <advance width="1094"/>
  <unicode hex="003F"/>
  <outline>
    <contour>
      <point x="423" y="348" type="curve"/>
      <point x="423" y="348"/>
      <point x="535" y="348"/>
      <point x="535" y="348" type="curve"/>
      <point x="808.26984127" y="629.396825397"/>
      <point x="966" y="755"/>
      <point x="966" y="947" type="curve" smooth="yes"/>
      <point x="966" y="1162"/>
      <point x="803" y="1274"/>
      <point x="612" y="1274" type="curve" smooth="yes"/>
      <point x="474" y="1274"/>
      <point x="336" y="1214"/>
      <point x="274" y="1160" type="curve"/>
      <point x="327" y="1068" type="line"/>
      <point x="402" y="1124"/>
      <point x="498" y="1167"/>
      <point x="604" y="1167" type="curve" smooth="yes"/>
      <point x="722" y="1167"/>
      <point x="837" y="1101"/>
      <point x="837" y="954" type="curve" smooth="yes"/>
      <point x="837" y="809"/>
      <point x="757" y="719"/>
    </contour>
    <component base="period" xOffset="200"/>
  </outline>
</glyph>
<glyph name="A" format="1">
  <advance width="1284"/>
  <unicode hex="0041"/>
  <outline>
    <contour>
      <point x="130" y="0" type="line"/>
      <point x="259" y="0" type="line"/>
      <point x="392" y="299" type="line"/>
      <point x="973" y="299" type="line"/>
      <point x="1110" y="0" type="line"/>
      <point x="1237" y="0" type="line"/>
      <point x="686" y="1259" type="line"/>
    </contour>
    <contour>
      <point x="431" y="392" type="line"/>
      <point x="685" y="1009" type="line"/>
      <point x="946" y="392" type="line"/>
    </contour>
  </outline>
</glyph>
<glyph name="G" format="1">
  <advance width="1384"/>
  <unicode hex="0047"/>
  <outline>
    <contour>
      <point x="759" y="-34" type="curve"/>
      <point x="1029" y="-34"/>
      <point x="1159" y="29"/>
      <point x="1287" y="102" type="curve"/>
      <point x="1287" y="660" type="line"/>
      <point x="806" y="660" type="line"/>
      <point x="806" y="555" type="line"/>
      <point x="1168" y="555" type="line"/>
      <point x="1168" y="158" type="line"/>
      <point x="1168" y="158"/>
      <point x="1024" y="72"/>
      <point x="778" y="72" type="curve" smooth="yes"/>
      <point x="502" y="72"/>
      <point x="230" y="241"/>
      <point x="230" y="621" type="curve" smooth="yes"/>
      <point x="230" y="992"/>
      <point x="477" y="1168"/>
      <point x="781" y="1168" type="curve" smooth="yes"/>
      <point x="908" y="1168"/>
      <point x="1046" y="1137"/>
      <point x="1179" y="1077" type="curve"/>
      <point x="1179" y="1187" type="line"/>
      <point x="1111" y="1216"/>
      <point x="943" y="1274"/>
      <point x="771" y="1274" type="curve" smooth="yes"/>
      <point x="404" y="1274"/>
      <point x="100" y="1025"/>
      <point x="100" y="621" type="curve" smooth="yes"/>
      <point x="100" y="190"/>
      <point x="440" y="-34"/>
    </contour>
  </outline>
</glyph>
<glyph name="H" format="1">
  <advance width="1344"/>
  <unicode hex="0048"/>
  <outline>
    <contour>
      <point x="1183" y="0" type="line"/>
      <point x="1183" y="1241" type="line"/>
      <point x="1055" y="1241" type="line"/>
      <point x="1055" y="704" type="line"/>
      <point x="289" y="704" type="line"/>
      <point x="289" y="1241" type="line"/>
      <point x="161" y="1241" type="line"/>
      <point x="161" y="0" type="line"/>
      <point x="289" y="0" type="line"/>
      <point x="289" y="603" type="line"/>
      <point x="1055" y="603" type="line"/>
      <point x="1055" y="0" type="line"/>
    </contour>
  </outline>
</glyph>
<glyph name="K" format="1">
  <advance width="1105"/>
  <unicode hex="004B"/>
  <outline>
    <contour>
      <point x="289" y="618" type="line"/>
      <point x="922" y="0" type="line"/>
      <point x="1083" y="0" type="line"/>
      <point x="424" y="642" type="line"/>
      <point x="1036" y="1241" type="line"/>
      <point x="879" y="1241" type="line"/>
      <point x="289" y="668" type="line"/>
      <point x="289" y="1241" type="line"/>
      <point x="161" y="1241" type="line"/>
      <point x="161" y="0" type="line"/>
      <point x="289" y="0" type="line"/>
    </contour>
  </outline>
</glyph>
<glyph name="M" format="1">
  <advance width="1697"/>
  <unicode hex="004D"/>
  <outline>
    <contour>
      <point x="94" y="0" type="line"/>
      <point x="225" y="0" type="line"/>
      <point x="364" y="902" type="line"/>
      <point x="849" y="28" type="line"/>
      <point x="1333" y="902" type="line"/>
      <point x="1472" y="0" type="line"/>
      <point x="1603" y="0" type="line"/>
      <point x="1399" y="1275" type="line"/>
      <point x="848" y="266" type="line"/>
      <point x="298" y="1275" type="line"/>
    </contour>
  </outline>
</glyph>
<glyph name="O" format="1">
  <advance width="1533"/>
  <unicode hex="004F"/>
  <outline>
    <contour>
      <point x="765" y="1168" type="curve" smooth="yes"/>
      <point x="1050" y="1168"/>
      <point x="1303" y="994"/>
      <point x="1303" y="618" type="curve" smooth="yes"/>
      <point x="1303" y="246"/>
      <point x="1023" y="72"/>
      <point x="765" y="72" type="curve" smooth="yes"/>
      <point x="491" y="72"/>
      <point x="230" y="245"/>
      <point x="230" y="619" type="curve" smooth="yes"/>
      <point x="230" y="994"/>
      <point x="478" y="1168"/>
    </contour>
    <contour>
      <point x="766" y="-34" type="curve" smooth="yes"/>
      <point x="1104" y="-34"/>
      <point x="1433" y="182"/>
      <point x="1433" y="623" type="curve" smooth="yes"/>
      <point x="1433" y="1058"/>
      <point x="1104" y="1274"/>
      <point x="765" y="1274" type="curve" smooth="yes"/>
      <point x="428" y="1274"/>
      <point x="100" y="1058"/>
      <point x="100" y="619" type="curve" smooth="yes"/>
      <point x="100" y="182"/>
      <point x="428" y="-34"/>
    </contour>
  </outline>
</glyph>
<glyph name="R" format="1">
  <advance width="1063"/>
  <unicode hex="0052"/>
  <outline>
    <contour>
      <point x="217" y="0" type="line"/>
      <point x="345" y="0" type="line"/>
      <point x="345" y="575" type="line"/>
      <point x="388" y="575" type="line"/>
      <point x="881" y="0" type="line"/>
      <point x="1038" y="0" type="line"/>
      <point x="528" y="576" type="line"/>
      <point x="785" y="584"/>
      <point x="971" y="667"/>
      <point x="971" y="913" type="curve" smooth="yes"/>
      <point x="971" y="1134"/>
      <point x="803" y="1241"/>
      <point x="500" y="1241" type="curve" smooth="yes"/>
      <point x="217" y="1241" type="line"/>
    </contour>
    <contour>
      <point x="345" y="677" type="line"/>
      <point x="345" y="1140" type="line"/>
      <point x="505" y="1140" type="line" smooth="yes"/>
      <point x="758" y="1140"/>
      <point x="843" y="1058"/>
      <point x="843" y="908" type="curve" smooth="yes"/>
      <point x="843" y="717"/>
      <point x="688" y="677"/>
      <point x="460" y="677" type="curve" smooth="yes"/>
    </contour>
  </outline>
</glyph>
<glyph name="S" format="1">
  <advance width="956"/>
  <unicode hex="0053"/>
  <outline>
    <contour>
      <point x="138" y="69" type="line"/>
      <point x="193" y="36"/>
      <point x="306" y="-34"/>
      <point x="508" y="-34" type="curve" smooth="yes"/>
      <point x="699" y="-34"/>
      <point x="883" y="63"/>
      <point x="883" y="281" type="curve" smooth="yes"/>
      <point x="883" y="398"/>
      <point x="825" y="493"/>
      <point x="644" y="607" type="curve" smooth="yes"/>
      <point x="381" y="770" type="line" smooth="yes"/>
      <point x="291" y="827"/>
      <point x="229" y="891"/>
      <point x="229" y="975" type="curve" smooth="yes"/>
      <point x="229" y="1082"/>
      <point x="313" y="1168"/>
      <point x="504" y="1168" type="curve" smooth="yes"/>
      <point x="606" y="1168"/>
      <point x="725" y="1137"/>
      <point x="818" y="1088" type="curve"/>
      <point x="818" y="1202" type="line"/>
      <point x="761" y="1229"/>
      <point x="644" y="1274"/>
      <point x="490" y="1274" type="curve" smooth="yes"/>
      <point x="235" y="1274"/>
      <point x="106" y="1136"/>
      <point x="106" y="968" type="curve" smooth="yes"/>
      <point x="106" y="852"/>
      <point x="191" y="758"/>
      <point x="310" y="685" type="curve" smooth="yes"/>
      <point x="584" y="515" type="line" smooth="yes"/>
      <point x="699" y="445"/>
      <point x="758" y="359"/>
      <point x="758" y="274" type="curve" smooth="yes"/>
      <point x="758" y="156"/>
      <point x="674" y="73"/>
      <point x="505" y="73" type="curve" smooth="yes"/>
      <point x="350" y="73"/>
      <point x="235" y="115"/>
      <point x="138" y="180" type="curve"/>
    </contour>
  </outline>
</glyph>
<glyph name="V" format="1">
  <advance width="1264"/>
  <unicode hex="0056"/>
  <outline>
    <contour>
      <point x="190" y="1241" type="line"/>
      <point x="53" y="1241" type="line"/>
      <point x="644" y="-18" type="line"/>
      <point x="1211" y="1241" type="line"/>
      <point x="1068" y="1241" type="line"/>
      <point x="643" y="268" type="line"/>
    </contour>
  </outline>
</glyph>
<glyph name="Z" format="1">
  <advance width="1059"/>
  <unicode hex="005A"/>
  <outline>
    <contour>
      <point x="117" y="0" type="line"/>
      <point x="907" y="0" type="line"/>
      <point x="907" y="106" type="line"/>
      <point x="313" y="106" type="line"/>
      <point x="899" y="1241" type="line"/>
      <point x="150" y="1241" type="line"/>
      <point x="150" y="1135" type="line"/>
      <point x="712" y="1135" type="line"/>
    </contour>
  </outline>
</glyph>
<glyph name="grave" format="1">
  <advance width="370"/>
  <unicode hex="0060"/>
  <outline>
    <contour>
      <point x="302" y="121" type="line" smooth="yes"/>
      <point x="305" y="115"/>
      <point x="306" y="110"/>
      <point x="306" y="106" type="curve" smooth="yes"/>
      <point x="306" y="94"/>
      <point x="298" y="86"/>
      <point x="288" y="86" type="curve" smooth="yes"/>
      <point x="281" y="86"/>
      <point x="274" y="90"/>
      <point x="267" y="98" type="curve" smooth="yes"/>
      <point x="27" y="381" type="line" smooth="yes"/>
      <point x="15" y="395"/>
      <point x="10" y="409"/>
      <point x="10" y="422" type="curve" smooth="yes"/>
      <point x="10" y="454"/>
      <point x="42" y="481"/>
      <point x="75" y="481" type="curve" smooth="yes"/>
      <point x="97" y="481"/>
      <point x="120" y="469"/>
      <point x="135" y="441" type="curve" smooth="yes"/>
    </contour>
  </outline>
</glyph>
<glyph name="b" format="1">
  <advance width="1074.0"/>
  <unicode hex="0062"/>
  <outline>
    <contour>
      <point x="500.0" y="-16" type="curve" smooth="yes"/>
      <point x="786.0" y="-16"/>
      <point x="966.0" y="154"/>
      <point x="966.0" y="411" type="curve" smooth="yes"/>
      <point x="966.0" y="650"/>
      <point x="811.0" y="840"/>
      <point x="576.0" y="840" type="curve" smooth="yes"/>
      <point x="397.0" y="840"/>
      <point x="293.0" y="752"/>
      <point x="293.0" y="752" type="curve"/>
      <point x="293.0" y="1242.0" type="line"/>
      <point x="165.0" y="1220.0" type="line"/>
      <point x="165.0" y="43.0" type="line"/>
      <point x="290.0" y="4.0"/>
      <point x="405.0" y="-16"/>
    </contour>
    <contour>
      <point x="502.0" y="81" type="curve"/>
      <point x="406.0" y="81"/>
      <point x="332.0" y="99"/>
      <point x="293.0" y="108" type="curve"/>
      <point x="293.0" y="240"/>
      <point x="293.0" y="657.0"/>
      <point x="293.0" y="657.0" type="curve"/>
      <point x="293.0" y="657.0"/>
      <point x="437.0" y="742"/>
      <point x="562.0" y="742" type="curve" smooth="yes"/>
      <point x="766.0" y="742"/>
      <point x="839.0" y="569"/>
      <point x="839.0" y="402" type="curve" smooth="yes"/>
      <point x="839.0" y="191"/>
      <point x="694.0" y="81"/>
    </contour>
  </outline>
</glyph>
<glyph name="e" format="1">
  <advance width="952.0"/>
  <unicode hex="0065"/>
  <outline>
    <contour>
      <point x="559.0" y="-15" type="curve" smooth="yes"/>
      <point x="688.0" y="-15"/>
      <point x="764.0" y="18"/>
      <point x="831.0" y="57" type="curve"/>
      <point x="831.0" y="159" type="line"/>
      <point x="770.0" y="126"/>
      <point x="698.0" y="81"/>
      <point x="556.0" y="81" type="curve"/>
      <point x="384.0" y="81"/>
      <point x="242.0" y="170"/>
      <point x="227.0" y="388" type="curve"/>
      <point x="862.0" y="388" type="line"/>
      <point x="862.0" y="409" type="line" smooth="yes"/>
      <point x="862.0" y="633"/>
      <point x="754.0" y="840"/>
      <point x="498.0" y="840" type="curve" smooth="yes"/>
      <point x="282.0" y="840"/>
      <point x="108.0" y="669"/>
      <point x="108.0" y="428.0" type="curve" smooth="yes"/>
      <point x="108.0" y="132"/>
      <point x="304.0" y="-15"/>
    </contour>
    <contour>
      <point x="235.0" y="474" type="line"/>
      <point x="243.0" y="542"/>
      <point x="295.0" y="742"/>
      <point x="513.0" y="742" type="curve" smooth="yes"/>
      <point x="667.0" y="742"/>
      <point x="745.0" y="614"/>
      <point x="754.0" y="474" type="curve"/>
    </contour>
  </outline>
</glyph>
<glyph name="g" format="1">
  <advance width="1058"/>
  <unicode hex="0067"/>
  <outline>
    <contour>
      <point x="561" y="-393" type="curve" smooth="yes"/>
      <point x="771" y="-393"/>
      <point x="909" y="-271"/>
      <point x="909" y="-15" type="curve" smooth="yes"/>
      <point x="909" y="824" type="line"/>
      <point x="781" y="824" type="line"/>
      <point x="781" y="761" type="line"/>
      <point x="781" y="761"/>
      <point x="677" y="840"/>
      <point x="498" y="840" type="curve" smooth="yes"/>
      <point x="263" y="840"/>
      <point x="108" y="650"/>
      <point x="108" y="411" type="curve" smooth="yes"/>
      <point x="108" y="154"/>
      <point x="268" y="-16"/>
      <point x="564" y="-16" type="curve" smooth="yes"/>
      <point x="625" y="-16"/>
      <point x="720" y="4"/>
      <point x="781" y="30" type="curve"/>
      <point x="781" y="-42" type="line" smooth="yes"/>
      <point x="781" y="-206"/>
      <point x="702" y="-295"/>
      <point x="573" y="-295" type="curve" smooth="yes"/>
      <point x="439" y="-295"/>
      <point x="364" y="-267"/>
      <point x="308" y="-242" type="curve"/>
      <point x="308" y="-342" type="line"/>
      <point x="355" y="-362"/>
      <point x="446" y="-393"/>
    </contour>
    <contour>
      <point x="561" y="82" type="curve" smooth="yes"/>
      <point x="343" y="82"/>
      <point x="235" y="191"/>
      <point x="235" y="402" type="curve" smooth="yes"/>
      <point x="235" y="573"/>
      <point x="317" y="742"/>
      <point x="530" y="742" type="curve" smooth="yes"/>
      <point x="670" y="742"/>
      <point x="781" y="666"/>
      <point x="781" y="666" type="curve"/>
      <point x="781" y="120" type="line"/>
      <point x="742" y="108"/>
      <point x="657" y="82"/>
    </contour>
  </outline>
</glyph>
<glyph name="h" format="1">
  <advance width="1181"/>
  <unicode hex="0068"/>
  <outline>
    <contour>
      <point x="310.0" y="0.0" type="line"/>
      <point x="310.0" y="595.0" type="line"/>
      <point x="310.0" y="595.0"/>
      <point x="440" y="742"/>
      <point x="629" y="742" type="curve" smooth="yes"/>
      <point x="775" y="742"/>
      <point x="846" y="690"/>
      <point x="846" y="559" type="curve" smooth="yes"/>
      <point x="846" y="0" type="line"/>
      <point x="974" y="0" type="line"/>
      <point x="974" y="580" type="line" smooth="yes"/>
      <point x="974" y="735"/>
      <point x="831" y="840"/>
      <point x="673" y="840" type="curve" smooth="yes"/>
      <point x="428" y="840"/>
      <point x="310" y="694"/>
      <point x="310" y="694" type="curve"/>
      <point x="310" y="1241" type="line"/>
      <point x="182" y="1219" type="line"/>
      <point x="182.0" y="0.0" type="line"/>
    </contour>
  </outline>
</glyph>
<glyph name="i" format="1">
  <advance width="508"/>
  <unicode hex="0069"/>
  <outline>
    <contour>
      <point x="343" y="1152" type="curve" smooth="yes"/>
      <point x="343" y="1194"/>
      <point x="312" y="1240"/>
      <point x="255" y="1240" type="curve" smooth="yes"/>
      <point x="196" y="1240"/>
      <point x="165" y="1195"/>
      <point x="165" y="1152" type="curve" smooth="yes"/>
      <point x="165" y="1108"/>
      <point x="196" y="1064"/>
      <point x="255" y="1064" type="curve" smooth="yes"/>
      <point x="312" y="1064"/>
      <point x="343" y="1108"/>
    </contour>
    <contour>
      <point x="321" y="0" type="line"/>
      <point x="321" y="824" type="line"/>
      <point x="193" y="824" type="line"/>
      <point x="193" y="0" type="line"/>
    </contour>
  </outline>
</glyph>
<glyph name="o" format="1">
  <advance width="1106"/>
  <unicode hex="006F"/>
  <outline>
    <contour>
      <point x="998" y="408" type="curve" smooth="yes"/>
      <point x="998" y="139"/>
      <point x="785" y="-16"/>
      <point x="552" y="-16" type="curve" smooth="yes"/>
      <point x="320" y="-16"/>
      <point x="108" y="138"/>
      <point x="108" y="408" type="curve" smooth="yes"/>
      <point x="108" y="682"/>
      <point x="321" y="840"/>
      <point x="554" y="840" type="curve" smooth="yes"/>
      <point x="771" y="840"/>
      <point x="998" y="683"/>
    </contour>
    <contour>
      <point x="553" y="81" type="curve" smooth="yes"/>
      <point x="769" y="81"/>
      <point x="879" y="244"/>
      <point x="879" y="409" type="curve" smooth="yes"/>
      <point x="879" y="575"/>
      <point x="765" y="742"/>
      <point x="553" y="742" type="curve" smooth="yes"/>
      <point x="341" y="742"/>
      <point x="227" y="576"/>
      <point x="227" y="410" type="curve" smooth="yes"/>
      <point x="227" y="230"/>
      <point x="337" y="81"/>
    </contour>
  </outline>
</glyph>
<glyph name="p" format="1">
  <advance width="1074"/>
  <unicode hex="0070"/>
  <outline>
    <contour>
      <point x="165" y="-417" type="line"/>
      <point x="293" y="-396" type="line"/>
      <point x="293" y="38" type="line"/>
      <point x="293" y="38"/>
      <point x="388" y="-16"/>
      <point x="567" y="-16" type="curve" smooth="yes"/>
      <point x="820" y="-16"/>
      <point x="966" y="171"/>
      <point x="966" y="410" type="curve" smooth="yes"/>
      <point x="966" y="654"/>
      <point x="805" y="839"/>
      <point x="572" y="839" type="curve" smooth="yes"/>
      <point x="459" y="839"/>
      <point x="363" y="806"/>
      <point x="293" y="745" type="curve"/>
      <point x="293" y="824" type="line"/>
      <point x="165" y="824" type="line"/>
    </contour>
    <contour>
      <point x="544" y="81" type="curve" smooth="yes"/>
      <point x="404" y="81"/>
      <point x="293" y="128"/>
      <point x="293" y="128" type="curve"/>
      <point x="293" y="649" type="line"/>
      <point x="305" y="661"/>
      <point x="411" y="743"/>
      <point x="539" y="743" type="curve" smooth="yes"/>
      <point x="731" y="743"/>
      <point x="839" y="623"/>
      <point x="839" y="412" type="curve" smooth="yes"/>
      <point x="839" y="241"/>
      <point x="757" y="81"/>
    </contour>
  </outline>
</glyph>
<glyph name="r" format="1">
  <advance width="713"/>
  <unicode hex="0072"/>
  <outline>
    <contour>
      <point x="717" y="744" type="line"/>
      <point x="658" y="804"/>
      <point x="609" y="829"/>
      <point x="561" y="829" type="curve" smooth="yes"/>
      <point x="406" y="829"/>
      <point x="293" y="573"/>
      <point x="293" y="573" type="curve"/>
      <point x="293" y="824" type="line"/>
      <point x="165" y="824" type="line"/>
      <point x="165" y="0" type="line"/>
      <point x="293" y="0" type="line"/>
      <point x="293" y="413" type="line" smooth="yes"/>
      <point x="293" y="540"/>
      <point x="414" y="703"/>
      <point x="543" y="703" type="curve" smooth="yes"/>
      <point x="595" y="703"/>
      <point x="641" y="681"/>
      <point x="681" y="648" type="curve"/>
    </contour>
  </outline>
</glyph>
<glyph name="u" format="1">
  <advance width="1106"/>
  <unicode hex="0075"/>
  <outline>
    <contour>
      <point x="813" y="824" type="line"/>
      <point x="813" y="229" type="line"/>
      <point x="813" y="229"/>
      <point x="691" y="82"/>
      <point x="502" y="82" type="curve" smooth="yes"/>
      <point x="356" y="82"/>
      <point x="277" y="134"/>
      <point x="277" y="265" type="curve" smooth="yes"/>
      <point x="277" y="824" type="line"/>
      <point x="149" y="824" type="line"/>
      <point x="149" y="244" type="line" smooth="yes"/>
      <point x="149" y="92"/>
      <point x="289" y="-16"/>
      <point x="464" y="-16" type="curve" smooth="yes"/>
      <point x="705" y="-16"/>
      <point x="816.0" y="130.0"/>
      <point x="816" y="130" type="curve"/>
      <point x="816" y="0" type="line"/>
      <point x="941" y="0" type="line"/>
      <point x="941" y="824" type="line"/>
    </contour>
  </outline>
</glyph>
<glyph name="v" format="1">
  <advance width="912"/>
  <unicode hex="0076"/>
  <outline>
    <contour>
      <point x="462" y="-32" type="line"/>
      <point x="864" y="824" type="line"/>
      <point x="737" y="824" type="line"/>
      <point x="463" y="207" type="line"/>
      <point x="178" y="824" type="line"/>
      <point x="48" y="824" type="line"/>
    </contour>
  </outline>
</glyph>
<glyph name="w" format="1">
  <advance width="1267"/>
  <unicode hex="0077"/>
  <outline>
    <contour>
      <point x="639" y="601" type="line"/>
      <point x="903" y="-19" type="line"/>
      <point x="1224" y="824" type="line"/>
      <point x="1105" y="824" type="line"/>
      <point x="899" y="249" type="line"/>
      <point x="899" y="249"/>
      <point x="636" y="847"/>
      <point x="636" y="847" type="curve"/>
      <point x="380" y="252" type="line"/>
      <point x="161" y="824" type="line"/>
      <point x="43" y="824" type="line"/>
      <point x="370" y="-19" type="line"/>
    </contour>
  </outline>
</glyph>
<glyph name="x" format="1">
  <advance width="967"/>
  <unicode hex="0078"/>
  <outline>
    <contour>
      <point x="484" y="352" type="line"/>
      <point x="783" y="0" type="line"/>
      <point x="914" y="0" type="line"/>
      <point x="558" y="414" type="line"/>
      <point x="906" y="824" type="line"/>
      <point x="756" y="824" type="line"/>
      <point x="480" y="488" type="line"/>
      <point x="188" y="824" type="line"/>
      <point x="54" y="824" type="line"/>
      <point x="408" y="425" type="line"/>
      <point x="53" y="0" type="line"/>
      <point x="198" y="0" type="line"/>
    </contour>
  </outline>
</glyph>
<glyph name="y" format="1">
  <advance width="923"/>
  <unicode hex="0079"/>
  <outline>
    <contour>
      <point x="892" y="824" type="line"/>
      <point x="760" y="824" type="line"/>
      <point x="487" y="300" type="line"/>
      <point x="165" y="824" type="line"/>
      <point x="29" y="824" type="line"/>
      <point x="421" y="205" type="line"/>
      <point x="190" y="-244" type="line"/>
      <point x="326" y="-244" type="line"/>
    </contour>
  </outline>
</glyph>
<glyph name="z" format="1">
  <advance width="860"/>
  <unicode hex="007A"/>
  <outline>
    <contour>
      <point x="756" y="98" type="line"/>
      <point x="298" y="98" type="line"/>
      <point x="298" y="98"/>
      <point x="784.0" y="824.0"/>
      <point x="784" y="824" type="curve"/>
      <point x="140.046875" y="824.0" type="line"/>
      <point x="140" y="726" type="line"/>
      <point x="592" y="726" type="line"/>
      <point x="592" y="726"/>
      <point x="97.0" y="0.0"/>
      <point x="97" y="0" type="curve"/>
      <point x="756" y="0" type="line"/>
    </contour>
  </outline>
</glyph>
<glyph name="yen" format="1">
  <advance width="1259"/>
  <unicode hex="00A5"/>
  <outline>
    <contour>
      <point x="698" y="437" type="line"/>
      <point x="950" y="437" type="line"/>
      <point x="950" y="530" type="line"/>
      <point x="728" y="530" type="line"/>
      <point x="791" y="647" type="line"/>
      <point x="990" y="647" type="line"/>
      <point x="990" y="740" type="line"/>
      <point x="841" y="740" type="line"/>
      <point x="1112" y="1241" type="line"/>
      <point x="976" y="1241" type="line"/>
      <point x="636" y="592" type="line"/>
      <point x="272" y="1241" type="line"/>
      <point x="143" y="1241" type="line"/>
      <point x="424" y="740" type="line"/>
      <point x="270" y="740" type="line"/>
      <point x="270" y="647" type="line"/>
      <point x="476" y="647" type="line"/>
      <point x="541" y="530" type="line"/>
      <point x="310" y="530" type="line"/>
      <point x="310" y="437" type="line"/>
      <point x="570" y="437" type="line"/>
      <point x="570" y="0" type="line"/>
      <point x="698" y="0" type="line"/>
    </contour>
  </outline>
</glyph>
<glyph name="dieresis" format="1">
  <advance width="508"/>
  <unicode hex="00A8"/>
  <outline>
    <contour>
      <point x="508" y="72" type="curve" smooth="yes"/>
      <point x="508" y="114"/>
      <point x="477" y="160"/>
      <point x="420" y="160" type="curve" smooth="yes"/>
      <point x="361" y="160"/>
      <point x="330" y="115"/>
      <point x="330" y="72" type="curve" smooth="yes"/>
      <point x="330" y="28"/>
      <point x="361" y="-16"/>
      <point x="420" y="-16" type="curve" smooth="yes"/>
      <point x="477" y="-16"/>
      <point x="508" y="28"/>
    </contour>
    <contour>
      <point x="178" y="72" type="curve" smooth="yes"/>
      <point x="178" y="114"/>
      <point x="147" y="160"/>
      <point x="90" y="160" type="curve" smooth="yes"/>
      <point x="31" y="160"/>
      <point x="0" y="115"/>
      <point x="0" y="72" type="curve" smooth="yes"/>
      <point x="0" y="28"/>
      <point x="31" y="-16"/>
      <point x="90" y="-16" type="curve" smooth="yes"/>
      <point x="147" y="-16"/>
      <point x="178" y="28"/>
    </contour>
  </outline>
</glyph>
<glyph name="acute" format="1">
  <advance width="370"/>
  <unicode hex="00B4"/>
  <outline>
    <contour>
      <point x="14" y="121" type="line" smooth="yes"/>
      <point x="11" y="115"/>
      <point x="10" y="110"/>
      <point x="10" y="106" type="curve" smooth="yes"/>
      <point x="10" y="94"/>
      <point x="18" y="86"/>
      <point x="28" y="86" type="curve" smooth="yes"/>
      <point x="35" y="86"/>
      <point x="42" y="90"/>
      <point x="49" y="98" type="curve" smooth="yes"/>
      <point x="289" y="381" type="line" smooth="yes"/>
      <point x="301" y="395"/>
      <point x="306" y="409"/>
      <point x="306" y="422" type="curve" smooth="yes"/>
      <point x="306" y="454"/>
      <point x="274" y="481"/>
      <point x="241" y="481" type="curve" smooth="yes"/>
      <point x="219" y="481"/>
      <point x="196" y="469"/>
      <point x="181" y="441" type="curve" smooth="yes"/>
    </contour>
  </outline>
</glyph>
<glyph name="cedilla" format="1">
  <advance width="424"/>
  <unicode hex="00B8"/>
  <outline>
    <contour>
      <point x="260" y="-70" type="line"/>
      <point x="162" y="-98"/>
      <point x="124" y="-145"/>
      <point x="124" y="-193" type="curve" smooth="yes"/>
      <point x="124" y="-273"/>
      <point x="230" y="-356"/>
      <point x="340" y="-356" type="curve"/>
      <point x="349" y="-308" type="line"/>
      <point x="282" y="-288"/>
      <point x="221" y="-229"/>
      <point x="221" y="-180" type="curve" smooth="yes"/>
      <point x="221" y="-147"/>
      <point x="248" y="-119"/>
      <point x="319" y="-110" type="curve"/>
      <point x="319" y="1" type="line"/>
      <point x="260" y="1" type="line"/>
    </contour>
  </outline>
</glyph>
<glyph name="Ccedilla" format="1">
  <advance width="1287"/>
  <unicode hex="00C7"/>
  <outline>
    <contour>
      <point x="704" y="-81" type="line"/>
      <point x="600" y="-111"/>
      <point x="558" y="-163"/>
      <point x="558" y="-214" type="curve" smooth="yes"/>
      <point x="558" y="-291"/>
      <point x="654" y="-367"/>
      <point x="784" y="-367" type="curve"/>
      <point x="823" y="-299" type="line"/>
      <point x="756" y="-279"/>
      <point x="695" y="-231"/>
      <point x="695" y="-191" type="curve" smooth="yes"/>
      <point x="695" y="-164"/>
      <point x="722" y="-140"/>
      <point x="793" y="-131" type="curve"/>
      <point x="793" y="-10" type="line"/>
      <point x="704" y="-10" type="line"/>
    </contour>
    <contour>
      <point x="749.0" y="27.0" type="curve" smooth="yes"/>
      <point x="904.8984375" y="27"/>
      <point x="1046.84570312" y="78.8642578125"/>
      <point x="1110.0" y="106.215820312" type="curve"/>
      <point x="1110.0" y="248.577148438" type="line"/>
      <point x="1010.18261719" y="198.177734375"/>
      <point x="893.388671875" y="168.0"/>
      <point x="780.0" y="168.0" type="curve" smooth="yes"/>
      <point x="547.874023438" y="168.0"/>
      <point x="324.0" y="302.497070312"/>
      <point x="324.0" y="622.0" type="curve" smooth="yes"/>
      <point x="324.0" y="942.817382812"/>
      <point x="548.497070312" y="1074.0"/>
      <point x="780.0" y="1074.0" type="curve" smooth="yes"/>
      <point x="893.435546875" y="1074.0"/>
      <point x="1008.50683594" y="1044.66894531"/>
      <point x="1110.0" y="993.422851562" type="curve"/>
      <point x="1110.0" y="1135.78417969" type="line"/>
      <point x="1048.35839844" y="1162.484375"/>
      <point x="905.087890625" y="1215.0"/>
      <point x="749.0" y="1215.0" type="curve" smooth="yes"/>
      <point x="389.116210938" y="1215.0"/>
      <point x="134.0" y="991.697265625"/>
      <point x="134.0" y="622.0" type="curve" smooth="yes"/>
      <point x="134.0" y="253.115234375"/>
      <point x="389.456054688" y="27.0"/>
    </contour>
  </outline>
</glyph>
<glyph name="ograve" format="1">
  <advance width="1146"/>
  <unicode hex="00F2"/>
  <outline>
    <contour>
      <point x="680.215820312" y="1108.5" type="curve" smooth="yes"/>
      <point x="523.215820312" y="1439.5" type="line" smooth="yes"/>
      <point x="489.215820312" y="1511.5"/>
      <point x="440.215820312" y="1540.5"/>
      <point x="398.215820312" y="1540.5" type="curve" smooth="yes"/>
      <point x="347.215820312" y="1540.5"/>
      <point x="303.215820312" y="1498.5"/>
      <point x="303.215820312" y="1441.5" type="curve" smooth="yes"/>
      <point x="303.215820312" y="1409.5"/>
      <point x="318.215820312" y="1372.5"/>
      <point x="352.215820312" y="1335.5" type="curve" smooth="yes"/>
      <point x="611.215820312" y="1057.5" type="line" smooth="yes"/>
      <point x="624.215820312" y="1043.5"/>
      <point x="638.215820312" y="1037.5"/>
      <point x="651.215820312" y="1037.5" type="curve" smooth="yes"/>
      <point x="671.215820312" y="1037.5"/>
      <point x="687.215820312" y="1053.5"/>
      <point x="687.215820312" y="1077.5" type="curve" smooth="yes"/>
      <point x="687.215820312" y="1086.5"/>
      <point x="685.215820312" y="1097.5"/>
    </contour>
    <contour>
      <point x="564.0" y="843.0" type="curve" smooth="yes"/>
      <point x="316.4296875" y="843.0"/>
      <point x="130.0" y="682.111328125"/>
      <point x="130.0" y="440.958007812" type="curve" smooth="yes"/>
      <point x="130.0" y="197.484375"/>
      <point x="316.831054688" y="35.0"/>
      <point x="564.0" y="35.0" type="curve" smooth="yes"/>
      <point x="811.16796875" y="35.0"/>
      <point x="998.0" y="197.479492188"/>
      <point x="998.0" y="440.958007812" type="curve" smooth="yes"/>
      <point x="998.0" y="682.107421875"/>
      <point x="811.5703125" y="843.0"/>
    </contour>
    <contour>
      <point x="564.0" y="141.0" type="curve" smooth="yes"/>
      <point x="375.802734375" y="141.0"/>
      <point x="278.0" y="293.723632812"/>
      <point x="278.0" y="439.0" type="curve" smooth="yes"/>
      <point x="278.0" y="581.864257812"/>
      <point x="373.416015625" y="737.0"/>
      <point x="564.0" y="737.0" type="curve" smooth="yes"/>
      <point x="754.588867188" y="737.0"/>
      <point x="850.0" y="581.865234375"/>
      <point x="850.0" y="439.0" type="curve" smooth="yes"/>
      <point x="850.0" y="293.723632812"/>
      <point x="752.193359375" y="141.0"/>
    </contour>
  </outline>
</glyph>
<glyph name="oslash" format="1">
  <advance width="1146.0"/>
  <unicode hex="00F8"/>
  <outline>
    <contour>
      <point x="865" y="901" type="line"/>
      <point x="915" y="866" type="line"/>
      <point x="265" y="-74" type="line"/>
      <point x="215" y="-39" type="line"/>
    </contour>
    <component base="o"/>
  </outline>
</glyph>
<glyph name="quoteright" format="1">
  <advance width="508"/>
  <unicode hex="2019"/>
  <outline>
    <contour>
      <point x="193" y="928" type="line"/>
      <point x="302" y="1020"/>
      <point x="343" y="1094"/>
      <point x="343" y="1153" type="curve" smooth="yes"/>
      <point x="343" y="1195"/>
      <point x="312" y="1241"/>
      <point x="255" y="1241" type="curve" smooth="yes"/>
      <point x="196" y="1241"/>
      <point x="165" y="1196"/>
      <point x="165" y="1153" type="curve" smooth="yes"/>
      <point x="165" y="1119"/>
      <point x="184" y="1084"/>
      <point x="220" y="1071" type="curve"/>
      <point x="209" y="1021"/>
      <point x="171" y="976"/>
      <point x="134" y="928" type="curve"/>
    </contour>
  </outline>
</glyph>
